<svg width="194" height="29" viewBox="0 0 194 29" fill="none" xmlns="http://www.w3.org/2000/svg">
<path d="M10.516 11.004C11.5613 11.1907 12.448 11.7413 13.176 12.656C13.904 13.5707 14.268 14.6067 14.268 15.764C14.268 16.7533 14.0067 17.6493 13.484 18.452C12.98 19.236 12.2427 19.8613 11.272 20.328C10.3013 20.776 9.172 21 7.884 21H0.1V1.54H7.52C8.84533 1.54 9.984 1.764 10.936 2.212C11.888 2.66 12.6067 3.26667 13.092 4.032C13.5773 4.77867 13.82 5.61867 13.82 6.552C13.82 7.672 13.5213 8.60533 12.924 9.352C12.3267 10.0987 11.524 10.6493 10.516 11.004ZM3.292 9.716H7.24C8.28533 9.716 9.09733 9.48267 9.676 9.016C10.2733 8.53067 10.572 7.84 10.572 6.944C10.572 6.06667 10.2733 5.38533 9.676 4.9C9.09733 4.396 8.28533 4.144 7.24 4.144H3.292V9.716ZM7.604 18.396C8.68667 18.396 9.536 18.1347 10.152 17.612C10.768 17.0893 11.076 16.3613 11.076 15.428C11.076 14.476 10.7493 13.72 10.096 13.16C9.44267 12.6 8.57467 12.32 7.492 12.32H3.292V18.396H7.604ZM20.9287 0.28V21H17.7367V0.28H20.9287ZM31.8115 21.252C30.3555 21.252 29.0395 20.9253 27.8635 20.272C26.6875 19.6 25.7635 18.6667 25.0915 17.472C24.4195 16.2587 24.0835 14.8587 24.0835 13.272C24.0835 11.704 24.4289 10.3133 25.1195 9.1C25.8102 7.88667 26.7529 6.95333 27.9475 6.3C29.1422 5.64667 30.4769 5.32 31.9515 5.32C33.4262 5.32 34.7609 5.64667 35.9555 6.3C37.1502 6.95333 38.0929 7.88667 38.7835 9.1C39.4742 10.3133 39.8195 11.704 39.8195 13.272C39.8195 14.84 39.4649 16.2307 38.7555 17.444C38.0462 18.6573 37.0755 19.6 35.8435 20.272C34.6302 20.9253 33.2862 21.252 31.8115 21.252ZM31.8115 18.48C32.6329 18.48 33.3982 18.284 34.1075 17.892C34.8355 17.5 35.4235 16.912 35.8715 16.128C36.3195 15.344 36.5435 14.392 36.5435 13.272C36.5435 12.152 36.3289 11.2093 35.8995 10.444C35.4702 9.66 34.9009 9.072 34.1915 8.68C33.4822 8.288 32.7169 8.092 31.8955 8.092C31.0742 8.092 30.3089 8.288 29.5995 8.68C28.9089 9.072 28.3582 9.66 27.9475 10.444C27.5369 11.2093 27.3315 12.152 27.3315 13.272C27.3315 14.9333 27.7515 16.2213 28.5915 17.136C29.4502 18.032 30.5235 18.48 31.8115 18.48ZM49.667 21.252C48.211 21.252 46.895 20.9253 45.719 20.272C44.543 19.6 43.619 18.6667 42.947 17.472C42.275 16.2587 41.939 14.8587 41.939 13.272C41.939 11.704 42.2843 10.3133 42.975 9.1C43.6657 7.88667 44.6083 6.95333 45.803 6.3C46.9977 5.64667 48.3323 5.32 49.807 5.32C51.2817 5.32 52.6163 5.64667 53.811 6.3C55.0057 6.95333 55.9483 7.88667 56.639 9.1C57.3297 10.3133 57.675 11.704 57.675 13.272C57.675 14.84 57.3203 16.2307 56.611 17.444C55.9017 18.6573 54.931 19.6 53.699 20.272C52.4857 20.9253 51.1417 21.252 49.667 21.252ZM49.667 18.48C50.4883 18.48 51.2537 18.284 51.963 17.892C52.691 17.5 53.279 16.912 53.727 16.128C54.175 15.344 54.399 14.392 54.399 13.272C54.399 12.152 54.1843 11.2093 53.755 10.444C53.3257 9.66 52.7563 9.072 52.047 8.68C51.3377 8.288 50.5723 8.092 49.751 8.092C48.9297 8.092 48.1643 8.288 47.455 8.68C46.7643 9.072 46.2137 9.66 45.803 10.444C45.3923 11.2093 45.187 12.152 45.187 13.272C45.187 14.9333 45.607 16.2213 46.447 17.136C47.3057 18.032 48.379 18.48 49.667 18.48ZM79.5065 5.32C80.7198 5.32 81.8025 5.572 82.7545 6.076C83.7251 6.58 84.4811 7.32667 85.0225 8.316C85.5825 9.30533 85.8625 10.5 85.8625 11.9V21H82.6985V12.376C82.6985 10.9947 82.3531 9.94 81.6625 9.212C80.9718 8.46533 80.0291 8.092 78.8345 8.092C77.6398 8.092 76.6878 8.46533 75.9785 9.212C75.2878 9.94 74.9425 10.9947 74.9425 12.376V21H71.7785V12.376C71.7785 10.9947 71.4331 9.94 70.7425 9.212C70.0518 8.46533 69.1091 8.092 67.9145 8.092C66.7198 8.092 65.7678 8.46533 65.0585 9.212C64.3678 9.94 64.0225 10.9947 64.0225 12.376V21H60.8305V5.572H64.0225V7.336C64.5451 6.70133 65.2078 6.20667 66.0105 5.852C66.8131 5.49733 67.6718 5.32 68.5865 5.32C69.8185 5.32 70.9198 5.58133 71.8905 6.104C72.8611 6.62667 73.6078 7.38267 74.1305 8.372C74.5971 7.43867 75.3251 6.70133 76.3145 6.16C77.3038 5.6 78.3678 5.32 79.5065 5.32Z" fill="#F5A3B7"/>
<path d="M107.614 11.004C108.659 11.1907 109.546 11.7413 110.274 12.656C111.002 13.5707 111.366 14.6067 111.366 15.764C111.366 16.7533 111.104 17.6493 110.582 18.452C110.078 19.236 109.34 19.8613 108.37 20.328C107.399 20.776 106.27 21 104.982 21H97.1977V1.54H104.618C105.943 1.54 107.082 1.764 108.034 2.212C108.986 2.66 109.704 3.26667 110.19 4.032C110.675 4.77867 110.918 5.61867 110.918 6.552C110.918 7.672 110.619 8.60533 110.022 9.352C109.424 10.0987 108.622 10.6493 107.614 11.004ZM100.39 9.716H104.338C105.383 9.716 106.195 9.48267 106.774 9.016C107.371 8.53067 107.67 7.84 107.67 6.944C107.67 6.06667 107.371 5.38533 106.774 4.9C106.195 4.396 105.383 4.144 104.338 4.144H100.39V9.716ZM104.702 18.396C105.784 18.396 106.634 18.1347 107.25 17.612C107.866 17.0893 108.174 16.3613 108.174 15.428C108.174 14.476 107.847 13.72 107.194 13.16C106.54 12.6 105.672 12.32 104.59 12.32H100.39V18.396H104.702ZM128.974 12.908C128.974 13.4867 128.937 14.0093 128.862 14.476H117.074C117.168 15.708 117.625 16.6973 118.446 17.444C119.268 18.1907 120.276 18.564 121.47 18.564C123.188 18.564 124.401 17.8453 125.11 16.408H128.554C128.088 17.8267 127.238 18.9933 126.006 19.908C124.793 20.804 123.281 21.252 121.47 21.252C119.996 21.252 118.67 20.9253 117.494 20.272C116.337 19.6 115.422 18.6667 114.75 17.472C114.097 16.2587 113.77 14.8587 113.77 13.272C113.77 11.6853 114.088 10.2947 114.722 9.1C115.376 7.88667 116.281 6.95333 117.438 6.3C118.614 5.64667 119.958 5.32 121.47 5.32C122.926 5.32 124.224 5.63733 125.362 6.272C126.501 6.90667 127.388 7.80267 128.022 8.96C128.657 10.0987 128.974 11.4147 128.974 12.908ZM125.642 11.9C125.624 10.724 125.204 9.78133 124.382 9.072C123.561 8.36267 122.544 8.008 121.33 8.008C120.229 8.008 119.286 8.36267 118.502 9.072C117.718 9.76267 117.252 10.7053 117.102 11.9H125.642ZM131.052 13.216C131.052 11.6667 131.369 10.2947 132.004 9.1C132.657 7.90533 133.534 6.98133 134.636 6.328C135.756 5.656 136.988 5.32 138.332 5.32C139.545 5.32 140.6 5.56267 141.496 6.048C142.41 6.51467 143.138 7.10267 143.68 7.812V5.572H146.9V21H143.68V18.704C143.138 19.432 142.401 20.0387 141.468 20.524C140.534 21.0093 139.47 21.252 138.276 21.252C136.95 21.252 135.737 20.916 134.636 20.244C133.534 19.5533 132.657 18.6013 132.004 17.388C131.369 16.156 131.052 14.7653 131.052 13.216ZM143.68 13.272C143.68 12.208 143.456 11.284 143.008 10.5C142.578 9.716 142.009 9.11867 141.3 8.708C140.59 8.29733 139.825 8.092 139.004 8.092C138.182 8.092 137.417 8.29733 136.708 8.708C135.998 9.1 135.42 9.688 134.972 10.472C134.542 11.2373 134.328 12.152 134.328 13.216C134.328 14.28 134.542 15.2133 134.972 16.016C135.42 16.8187 135.998 17.4347 136.708 17.864C137.436 18.2747 138.201 18.48 139.004 18.48C139.825 18.48 140.59 18.2747 141.3 17.864C142.009 17.4533 142.578 16.856 143.008 16.072C143.456 15.2693 143.68 14.336 143.68 13.272ZM165.064 5.572V21H161.872V19.18C161.368 19.8147 160.706 20.3187 159.884 20.692C159.082 21.0467 158.223 21.224 157.308 21.224C156.095 21.224 155.003 20.972 154.032 20.468C153.08 19.964 152.324 19.2173 151.764 18.228C151.223 17.2387 150.952 16.044 150.952 14.644V5.572H154.116V14.168C154.116 15.5493 154.462 16.6133 155.152 17.36C155.843 18.088 156.786 18.452 157.98 18.452C159.175 18.452 160.118 18.088 160.808 17.36C161.518 16.6133 161.872 15.5493 161.872 14.168V5.572H165.064ZM173 8.176V16.716C173 17.2947 173.13 17.7147 173.392 17.976C173.672 18.2187 174.138 18.34 174.792 18.34H176.752V21H174.232C172.794 21 171.693 20.664 170.928 19.992C170.162 19.32 169.78 18.228 169.78 16.716V8.176H167.96V5.572H169.78V1.736H173V5.572H176.752V8.176H173ZM193.582 5.572L184.118 28.252H180.814L183.95 20.748L177.874 5.572H181.43L185.77 17.332L190.278 5.572H193.582Z" fill="white"/>
</svg>
