<svg width="167" height="25" viewBox="0 0 167 25" fill="none" xmlns="http://www.w3.org/2000/svg">
<path d="M9.728 9.432C10.624 9.592 11.384 10.064 12.008 10.848C12.632 11.632 12.944 12.52 12.944 13.512C12.944 14.36 12.72 15.128 12.272 15.816C11.84 16.488 11.208 17.024 10.376 17.424C9.544 17.808 8.576 18 7.472 18H0.8V1.32H7.16C8.296 1.32 9.272 1.512 10.088 1.896C10.904 2.28 11.52 2.8 11.936 3.456C12.352 4.096 12.56 4.816 12.56 5.616C12.56 6.576 12.304 7.376 11.792 8.016C11.28 8.656 10.592 9.128 9.728 9.432ZM3.536 8.328H6.92C7.816 8.328 8.512 8.128 9.008 7.728C9.52 7.312 9.776 6.72 9.776 5.952C9.776 5.2 9.52 4.616 9.008 4.2C8.512 3.768 7.816 3.552 6.92 3.552H3.536V8.328ZM7.232 15.768C8.16 15.768 8.888 15.544 9.416 15.096C9.944 14.648 10.208 14.024 10.208 13.224C10.208 12.408 9.928 11.76 9.368 11.28C8.808 10.8 8.064 10.56 7.136 10.56H3.536V15.768H7.232ZM18.6532 0.24V18H15.9172V0.24H18.6532ZM27.9813 18.216C26.7333 18.216 25.6053 17.936 24.5973 17.376C23.5893 16.8 22.7973 16 22.2213 14.976C21.6453 13.936 21.3573 12.736 21.3573 11.376C21.3573 10.032 21.6533 8.84 22.2453 7.8C22.8373 6.76 23.6453 5.96 24.6693 5.4C25.6933 4.84 26.8373 4.56 28.1013 4.56C29.3653 4.56 30.5093 4.84 31.5333 5.4C32.5573 5.96 33.3653 6.76 33.9573 7.8C34.5493 8.84 34.8453 10.032 34.8453 11.376C34.8453 12.72 34.5413 13.912 33.9333 14.952C33.3253 15.992 32.4933 16.8 31.4373 17.376C30.3973 17.936 29.2453 18.216 27.9813 18.216ZM27.9813 15.84C28.6853 15.84 29.3413 15.672 29.9493 15.336C30.5733 15 31.0773 14.496 31.4613 13.824C31.8453 13.152 32.0373 12.336 32.0373 11.376C32.0373 10.416 31.8533 9.608 31.4853 8.952C31.1173 8.28 30.6293 7.776 30.0213 7.44C29.4133 7.104 28.7573 6.936 28.0533 6.936C27.3493 6.936 26.6933 7.104 26.0853 7.44C25.4933 7.776 25.0213 8.28 24.6693 8.952C24.3173 9.608 24.1413 10.416 24.1413 11.376C24.1413 12.8 24.5013 13.904 25.2213 14.688C25.9573 15.456 26.8773 15.84 27.9813 15.84ZM43.286 18.216C42.038 18.216 40.91 17.936 39.902 17.376C38.894 16.8 38.102 16 37.526 14.976C36.95 13.936 36.662 12.736 36.662 11.376C36.662 10.032 36.958 8.84 37.55 7.8C38.142 6.76 38.95 5.96 39.974 5.4C40.998 4.84 42.142 4.56 43.406 4.56C44.67 4.56 45.814 4.84 46.838 5.4C47.862 5.96 48.67 6.76 49.262 7.8C49.854 8.84 50.15 10.032 50.15 11.376C50.15 12.72 49.846 13.912 49.238 14.952C48.63 15.992 47.798 16.8 46.742 17.376C45.702 17.936 44.55 18.216 43.286 18.216ZM43.286 15.84C43.99 15.84 44.646 15.672 45.254 15.336C45.878 15 46.382 14.496 46.766 13.824C47.15 13.152 47.342 12.336 47.342 11.376C47.342 10.416 47.158 9.608 46.79 8.952C46.422 8.28 45.934 7.776 45.326 7.44C44.718 7.104 44.062 6.936 43.358 6.936C42.654 6.936 41.998 7.104 41.39 7.44C40.798 7.776 40.326 8.28 39.974 8.952C39.622 9.608 39.446 10.416 39.446 11.376C39.446 12.8 39.806 13.904 40.526 14.688C41.262 15.456 42.182 15.84 43.286 15.84ZM68.8627 4.56C69.9027 4.56 70.8307 4.776 71.6467 5.208C72.4787 5.64 73.1267 6.28 73.5907 7.128C74.0707 7.976 74.3107 9 74.3107 10.2V18H71.5987V10.608C71.5987 9.424 71.3027 8.52 70.7107 7.896C70.1187 7.256 69.3107 6.936 68.2867 6.936C67.2627 6.936 66.4467 7.256 65.8387 7.896C65.2467 8.52 64.9507 9.424 64.9507 10.608V18H62.2387V10.608C62.2387 9.424 61.9427 8.52 61.3507 7.896C60.7587 7.256 59.9507 6.936 58.9267 6.936C57.9027 6.936 57.0867 7.256 56.4787 7.896C55.8867 8.52 55.5907 9.424 55.5907 10.608V18H52.8547V4.776H55.5907V6.288C56.0387 5.744 56.6067 5.32 57.2947 5.016C57.9827 4.712 58.7187 4.56 59.5027 4.56C60.5587 4.56 61.5027 4.784 62.3347 5.232C63.1667 5.68 63.8067 6.328 64.2547 7.176C64.6547 6.376 65.2787 5.744 66.1267 5.28C66.9747 4.8 67.8867 4.56 68.8627 4.56Z" fill="#F5A3B7"/>
<path d="M92.9546 9.432C93.8506 9.592 94.6106 10.064 95.2346 10.848C95.8586 11.632 96.1706 12.52 96.1706 13.512C96.1706 14.36 95.9466 15.128 95.4986 15.816C95.0666 16.488 94.4346 17.024 93.6026 17.424C92.7706 17.808 91.8026 18 90.6986 18H84.0266V1.32H90.3866C91.5226 1.32 92.4986 1.512 93.3146 1.896C94.1306 2.28 94.7466 2.8 95.1626 3.456C95.5786 4.096 95.7866 4.816 95.7866 5.616C95.7866 6.576 95.5306 7.376 95.0186 8.016C94.5066 8.656 93.8186 9.128 92.9546 9.432ZM86.7626 8.328H90.1466C91.0426 8.328 91.7386 8.128 92.2346 7.728C92.7466 7.312 93.0026 6.72 93.0026 5.952C93.0026 5.2 92.7466 4.616 92.2346 4.2C91.7386 3.768 91.0426 3.552 90.1466 3.552H86.7626V8.328ZM90.4586 15.768C91.3866 15.768 92.1146 15.544 92.6426 15.096C93.1706 14.648 93.4346 14.024 93.4346 13.224C93.4346 12.408 93.1546 11.76 92.5946 11.28C92.0346 10.8 91.2906 10.56 90.3626 10.56H86.7626V15.768H90.4586ZM111.264 11.064C111.264 11.56 111.232 12.008 111.168 12.408H101.064C101.144 13.464 101.536 14.312 102.24 14.952C102.944 15.592 103.808 15.912 104.832 15.912C106.304 15.912 107.344 15.296 107.952 14.064H110.904C110.504 15.28 109.776 16.28 108.72 17.064C107.68 17.832 106.384 18.216 104.832 18.216C103.568 18.216 102.432 17.936 101.424 17.376C100.432 16.8 99.6478 16 99.0718 14.976C98.5118 13.936 98.2318 12.736 98.2318 11.376C98.2318 10.016 98.5038 8.824 99.0478 7.8C99.6078 6.76 100.384 5.96 101.376 5.4C102.384 4.84 103.536 4.56 104.832 4.56C106.08 4.56 107.192 4.832 108.168 5.376C109.144 5.92 109.904 6.688 110.448 7.68C110.992 8.656 111.264 9.784 111.264 11.064ZM108.408 10.2C108.392 9.192 108.032 8.384 107.328 7.776C106.624 7.168 105.752 6.864 104.712 6.864C103.768 6.864 102.96 7.168 102.288 7.776C101.616 8.368 101.216 9.176 101.088 10.2H108.408ZM113.044 11.328C113.044 10 113.316 8.824 113.86 7.8C114.42 6.776 115.172 5.984 116.116 5.424C117.076 4.848 118.132 4.56 119.284 4.56C120.324 4.56 121.228 4.768 121.996 5.184C122.78 5.584 123.404 6.088 123.868 6.696V4.776H126.628V18H123.868V16.032C123.404 16.656 122.772 17.176 121.972 17.592C121.172 18.008 120.26 18.216 119.236 18.216C118.1 18.216 117.06 17.928 116.116 17.352C115.172 16.76 114.42 15.944 113.86 14.904C113.316 13.848 113.044 12.656 113.044 11.328ZM123.868 11.376C123.868 10.464 123.676 9.672 123.292 9C122.924 8.328 122.436 7.816 121.828 7.464C121.22 7.112 120.564 6.936 119.86 6.936C119.156 6.936 118.5 7.112 117.892 7.464C117.284 7.8 116.788 8.304 116.404 8.976C116.036 9.632 115.852 10.416 115.852 11.328C115.852 12.24 116.036 13.04 116.404 13.728C116.788 14.416 117.284 14.944 117.892 15.312C118.516 15.664 119.172 15.84 119.86 15.84C120.564 15.84 121.22 15.664 121.828 15.312C122.436 14.96 122.924 14.448 123.292 13.776C123.676 13.088 123.868 12.288 123.868 11.376ZM142.198 4.776V18H139.462V16.44C139.03 16.984 138.462 17.416 137.758 17.736C137.07 18.04 136.334 18.192 135.55 18.192C134.51 18.192 133.574 17.976 132.742 17.544C131.926 17.112 131.278 16.472 130.798 15.624C130.334 14.776 130.102 13.752 130.102 12.552V4.776H132.814V12.144C132.814 13.328 133.11 14.24 133.702 14.88C134.294 15.504 135.102 15.816 136.126 15.816C137.15 15.816 137.958 15.504 138.55 14.88C139.158 14.24 139.462 13.328 139.462 12.144V4.776H142.198ZM149 7.008V14.328C149 14.824 149.112 15.184 149.336 15.408C149.576 15.616 149.976 15.72 150.536 15.72H152.216V18H150.056C148.824 18 147.88 17.712 147.224 17.136C146.568 16.56 146.24 15.624 146.24 14.328V7.008H144.68V4.776H146.24V1.488H149V4.776H152.216V7.008H149ZM166.642 4.776L158.53 24.216H155.698L158.386 17.784L153.178 4.776H156.226L159.946 14.856L163.81 4.776H166.642Z" fill="#383838"/>
</svg>
